<?xml version="1.0" encoding="iso-8859-1"?>
<!-- Uploaded to: SVG Repo, www.svgrepo.com, Generator: SVG Repo Mixer Tools -->
<svg height="800px" width="800px" version="1.1" id="Layer_1" xmlns="http://www.w3.org/2000/svg" xmlns:xlink="http://www.w3.org/1999/xlink" 
	 viewBox="0 0 512.001 512.001" xml:space="preserve">
<path style="fill:#BD6428;" d="M112,64.001h288c17.672,0,32,14.328,32,32v384c0,17.672-14.328,32-32,32H112
	c-17.672,0-32-14.328-32-32v-384C80,78.329,94.328,64.001,112,64.001z"/>
<path style="fill:#F5F6F6;" d="M120,480.001c-4.416,0-8-3.584-8-8v-368c0-4.416,3.584-8,8-8h272c4.416,0,8,3.584,8,8v288l-88,88H120
	z"/>
<path style="fill:#A35623;" d="M176,96.001h-16v-16c0-8.84,7.16-16,16-16l0,0V96.001z"/>
<path style="fill:#CECECE;" d="M400,392.001h-80c-4.416,0-8,3.584-8,8v80L400,392.001z"/>
<path style="fill:#D17F4D;" d="M88,88.001L88,88.001c4.416,0,8,3.584,8,8v264c0,4.416-3.584,8-8,8l0,0c-4.416,0-8-3.584-8-8v-264
	C80,91.585,83.584,88.001,88,88.001z"/>
<g>
	<path style="fill:#E9E9E9;" d="M304,408.001v16c0,4.416-3.584,8-8,8l0,0c-4.416,0-8,3.584-8,8s-3.584,8-8,8h-8
		c-4.416,0-8,3.584-8,8s-3.584,8-8,8H112v8c0,4.416,3.584,8,8,8h192v-80C307.584,400.001,304,403.585,304,408.001z"/>
	<path style="fill:#E9E9E9;" d="M392,96.001H160c0.128,2.4,0.128,4.8,0,7.2c-0.44,8.824,6.352,16.336,15.176,16.776
		c0.28,0.016,0.552,0.024,0.824,0.024h192c8.84,0,16,7.16,16,16v24l0,0c0,8.84,7.16,16,16,16l0,0v-72
		C400,99.585,396.416,96.001,392,96.001z"/>
</g>
<path style="fill:#9BA7AF;" d="M308.72,45.121c-6.96-2.872-12.232-8.76-14.32-16c-6.184-21.208-28.392-33.384-49.6-27.2
	c-13.12,3.824-23.376,14.08-27.2,27.2c-2.088,7.24-7.36,13.128-14.32,16l-17.2,6.88c-6.064,2.416-10.056,8.272-10.08,14.8v29.2
	c0,8.84,7.16,16,16,16h128c8.84,0,16-7.16,16-16v-29.2c-0.024-6.528-4.016-12.384-10.08-14.8L308.72,45.121z M256,56.001
	c-8.84,0-16-7.16-16-16s7.16-16,16-16c8.84,0,16,7.16,16,16S264.84,56.001,256,56.001z"/>
<path style="fill:#72818B;" d="M312,64.001c-4.416,0-8,3.584-8,8l0,0c0,4.416-3.584,8-8,8h-16c-4.416,0-8,3.584-8,8l0,0
	c0,4.416-3.584,8-8,8h-88c0,8.84,7.16,16,16,16h128c8.84,0,16-7.16,16-16v-32H312z"/>
<path style="fill:#AFBABF;" d="M225.04,40.001c-4.416,0.144-8.112-3.328-8.248-7.744c-0.024-0.76,0.064-1.52,0.248-2.256
	c4.584-17.744,20.632-30.104,38.96-30c4.416,0,8,3.584,8,8s-3.584,8-8,8c-10.96-0.016-20.544,7.392-23.28,18
	C231.816,37.513,228.664,39.969,225.04,40.001z"/>
<path style="fill:#A35623;" d="M400,80.001h-32c-8.84,0-16-7.16-16-16h-16v32h56c4.416,0,8,3.584,8,8v288l-88,88H120
	c0,8.84,7.16,16,16,16h194.72c8.488,0.008,16.632-3.36,22.64-9.36l53.28-53.28c6-6.008,9.368-14.152,9.36-22.64V96.001
	C416,87.169,408.84,80.001,400,80.001z"/>
<circle style="fill:#EE2C39;" cx="256" cy="264.001" r="104"/>
<path style="fill:#CC202C;" d="M344,248.001c-8.84,0-16,7.16-16,16c0,39.768-32.232,72-72,72c-8.84,0-16,7.16-16,16s7.16,16,16,16
	c57.44,0,104-46.56,104-104C360,255.169,352.84,248.001,344,248.001z"/>
<path style="fill:#F16351;" d="M168,280.001c8.84,0,16-7.16,16-16c0-39.768,32.232-72,72-72c8.84,0,16-7.16,16-16s-7.16-16-16-16
	c-57.44,0-104,46.56-104,104C152,272.841,159.16,280.001,168,280.001z"/>
<path style="fill:#FFFFFF;" d="M299.36,284.721L299.36,284.721l-20.72-20.72l20.64-20.64l0,0c6.248-6.248,6.248-16.392,0-22.64
	s-16.392-6.248-22.64,0l0,0l0,0L256,241.361l-20.64-20.64l0,0c-6.248-6.248-16.392-6.248-22.64,0s-6.248,16.392,0,22.64l0,0
	l20.64,20.64l-20.72,20.72l0,0c-6.248,6.248-6.248,16.392,0,22.64s16.392,6.248,22.64,0l0,0l0,0l20.72-20.72l20.72,20.72l0,0
	c6.248,6.248,16.392,6.248,22.64,0C305.616,301.113,305.616,290.977,299.36,284.721z"/>
<g>
	<path style="fill:#CC202C;" d="M276.64,307.281L256,286.641l-20.72,20.72l0,0c-4.712,4.656-11.808,5.928-17.84,3.2
		c0.768,1.784,1.848,3.408,3.2,4.8c6.248,6.248,16.376,6.256,22.624,0.016c0.008-0.008,0.008-0.008,0.016-0.016l0,0l20.72-20.72
		L276.64,307.281L276.64,307.281z"/>
	<path style="fill:#CC202C;" d="M299.28,243.281L299.28,243.281l-20.64,20.72l20.72,20.72l0,0c5.944,6.536,5.464,16.656-1.072,22.6
		c-6.088,5.536-15.384,5.552-21.488,0.04l8,8l0,0c6.248,6.248,16.392,6.248,22.64,0s6.248-16.392,0-22.64l0,0l-20.8-20.72
		l20.72-20.72l0,0c6.216-6.28,6.16-16.416-0.12-22.624c-1.352-1.344-2.944-2.432-4.68-3.216
		C305.272,231.497,303.968,238.593,299.28,243.281z"/>
</g>
<g>
	<path style="fill:#DDDFE1;" d="M268.64,299.281l-13.6-13.6c-3.856-3.888-10.144-3.912-14.032-0.048
		c-0.016,0.016-0.032,0.032-0.048,0.048l-13.68,13.68l0,0c-4.712,4.656-11.808,5.928-17.84,3.2c0.768,1.784,1.848,3.408,3.2,4.8
		c6.248,6.248,16.376,6.256,22.624,0.016c0.008-0.008,0.008-0.008,0.016-0.016l0,0l20.72-20.72L268.64,299.281L268.64,299.281z"/>
	<path style="fill:#DDDFE1;" d="M291.28,235.281L291.28,235.281l-13.68,13.68c-3.856,3.872-3.856,10.128,0,14l13.68,13.68l0,0
		c5.944,6.536,5.464,16.656-1.072,22.6c-6.088,5.536-15.384,5.552-21.488,0.04l8,8l0,0c6.248,6.248,16.392,6.248,22.64,0
		s6.248-16.392,0-22.64l0,0l-20.72-20.64l20.72-20.72l0,0c6.216-6.28,6.16-16.416-0.12-22.624c-1.352-1.344-2.944-2.432-4.68-3.216
		C297.272,223.497,295.968,230.593,291.28,235.281z"/>
</g>
</svg>