<?xml version="1.0" encoding="iso-8859-1"?>
<!-- Uploaded to: SVG Repo, www.svgrepo.com, Generator: SVG Repo Mixer Tools -->
<svg height="800px" width="800px" version="1.1" id="Layer_1" xmlns="http://www.w3.org/2000/svg" xmlns:xlink="http://www.w3.org/1999/xlink" 
	 viewBox="0 0 392.598 392.598" xml:space="preserve">
<path style="fill:#FFFFFF;" d="M196.364,21.786c-69.883,0-126.642,56.824-126.642,126.642s56.76,126.642,126.642,126.642
	s126.642-56.76,126.642-126.642S266.246,21.786,196.364,21.786z"/>
<g>
	<path style="fill:#56ACE0;" d="M121.568,137.438H92.089c2.133-20.428,10.149-39.111,22.303-54.303
		c4.396,1.422,8.857,2.715,13.511,3.879C124.412,102.529,122.214,119.467,121.568,137.438z"/>
	<path style="fill:#56ACE0;" d="M121.632,159.354c0.646,18.036,2.844,34.909,6.335,50.489c-4.655,1.164-9.244,2.457-13.64,3.879
		c-12.154-15.257-20.17-33.939-22.303-54.368H121.632z"/>
	<path style="fill:#56ACE0;" d="M133.721,230.788c0.259,0.711,0.517,1.487,0.776,2.198c-0.776-0.582-1.552-1.164-2.327-1.81
		C132.622,231.046,133.139,230.917,133.721,230.788z"/>
	<path style="fill:#56ACE0;" d="M132.105,65.616c0.776-0.646,1.616-1.228,2.457-1.81c-0.259,0.776-0.517,1.487-0.776,2.263
		C133.204,65.939,132.687,65.81,132.105,65.616z"/>
	<path style="fill:#56ACE0;" d="M185.503,73.18c-10.408-0.388-20.558-1.293-30.319-2.844c2.844-8.21,6.141-15.58,9.632-21.851
		c6.659-2.133,13.511-3.556,20.687-4.267V73.18z"/>
	<path style="fill:#56ACE0;" d="M143.418,159.224h42.02v42.602c-12.477,0.453-24.566,1.552-36.267,3.426
		C146.133,191.418,144.129,176.032,143.418,159.224z"/>
	<path style="fill:#56ACE0;" d="M155.184,226.457c9.762-1.487,19.846-2.392,30.319-2.78v29.026
		c-7.111-0.711-14.028-2.198-20.622-4.267C161.325,242.101,158.028,234.731,155.184,226.457z"/>
	<path style="fill:#56ACE0;" d="M149.301,91.539c11.572,1.875,23.79,3.038,36.267,3.491v42.537h-42.02
		C144.129,120.76,146.198,105.374,149.301,91.539z"/>
	<path style="fill:#56ACE0;" d="M207.224,223.677c10.408,0.388,20.558,1.293,30.319,2.78c-2.844,8.275-6.141,15.644-9.632,21.98
		c-6.659,2.133-13.511,3.556-20.622,4.267v-29.026H207.224z"/>
	<path style="fill:#56ACE0;" d="M237.543,70.4c-9.762,1.487-19.846,2.392-30.319,2.78V44.154c7.111,0.711,14.028,2.198,20.622,4.267
		C231.467,54.756,234.699,62.125,237.543,70.4z"/>
	<path style="fill:#56ACE0;" d="M249.244,159.354c-0.646,16.743-2.715,32.129-5.818,45.964c-11.572-1.875-23.79-3.038-36.267-3.426
		v-42.602h42.085V159.354z"/>
	<path style="fill:#56ACE0;" d="M243.491,91.475c3.103,13.834,5.172,29.22,5.818,45.964h-41.956V94.901
		C219.766,94.513,231.855,93.414,243.491,91.475z"/>
	<path style="fill:#56ACE0;" d="M258.295,63.935c0.776,0.582,1.552,1.164,2.327,1.745c-0.517,0.129-1.034,0.259-1.552,0.388
		C258.812,65.358,258.554,64.646,258.295,63.935z"/>
	<path style="fill:#56ACE0;" d="M259.006,230.788c0.517,0.129,1.034,0.259,1.552,0.388c-0.776,0.582-1.552,1.164-2.327,1.745
		C258.554,232.275,258.812,231.499,259.006,230.788z"/>
	<path style="fill:#56ACE0;" d="M271.16,159.418h29.414c-2.133,20.428-10.15,39.111-22.303,54.303
		c-4.331-1.422-8.857-2.715-13.446-3.879C268.315,194.327,270.578,177.39,271.16,159.418z"/>
	<path style="fill:#56ACE0;" d="M271.095,137.568c-0.646-17.972-2.844-34.909-6.335-50.489c4.655-1.164,9.18-2.457,13.576-3.879
		c12.154,15.257,20.105,33.939,22.238,54.368H271.095z"/>
</g>
<path style="fill:#194F82;" d="M381.77,345.018H231.337c-3.556-11.442-12.606-20.493-24.113-24.113v-24.501
	c76.8-5.624,137.568-69.883,137.568-147.976C344.792,66.586,278.206,0,196.364,0S47.935,66.586,47.935,148.428
	c0,78.222,60.768,142.416,137.568,147.976v24.501c-11.442,3.556-20.493,12.671-24.113,24.113H10.958
	c-6.012,0-10.925,4.848-10.925,10.925c0,6.077,4.848,10.925,10.925,10.925h150.368c4.655,14.933,18.554,25.729,34.974,25.729
	c16.356,0,30.384-10.796,34.974-25.729H381.64c6.012,0,10.925-4.848,10.925-10.925C392.566,349.867,387.782,345.018,381.77,345.018z
	 M242.263,266.408c6.594-9.891,12.218-21.915,16.743-35.62c9.18,2.327,17.713,5.107,25.471,8.404
	C272.453,250.893,258.166,260.202,242.263,266.408z M299.345,221.996c-10.279-4.848-21.915-8.986-34.521-12.154
	c3.491-15.515,5.689-32.453,6.335-50.489h51.394C320.485,182.562,312.21,204.024,299.345,221.996z M322.489,137.568h-51.394
	c-0.646-18.036-2.844-34.909-6.335-50.489c12.606-3.168,24.242-7.24,34.521-12.154C312.21,92.897,320.485,114.295,322.489,137.568z
	 M284.541,57.665c-7.758,3.297-16.356,6.077-25.471,8.404c-4.461-13.576-10.15-25.665-16.614-35.556
	C258.166,36.719,272.453,45.964,284.541,57.665z M207.289,25.018c11.378,6.4,22.303,22.432,30.319,45.382
	c-9.762,1.487-19.846,2.392-30.319,2.78V25.018z M207.289,94.966c12.412-0.453,24.566-1.552,36.267-3.491
	c3.103,13.834,5.172,29.22,5.818,45.964h-42.02V94.966H207.289z M207.289,159.354h41.956c-0.646,16.743-2.715,32.129-5.818,45.964
	c-11.572-1.875-23.79-3.038-36.267-3.426v-42.602h0.129V159.354z M207.289,223.677c10.408,0.388,20.558,1.293,30.319,2.78
	c-7.952,22.949-18.941,38.917-30.319,45.382V223.677z M185.438,25.018V73.18c-10.408-0.388-20.558-1.293-30.319-2.844
	C163.135,47.451,174.125,31.418,185.438,25.018z M143.483,137.568c0.646-16.743,2.715-32.129,5.818-45.964
	c11.572,1.875,23.79,3.038,36.267,3.491v42.473H143.483z M185.438,159.354v42.473c-12.412,0.453-24.566,1.552-36.267,3.426
	c-3.103-13.834-5.107-29.22-5.818-45.964h42.02v0.065H185.438z M150.4,30.513c-6.465,9.891-12.154,21.915-16.614,35.556
	c-9.18-2.327-17.713-5.172-25.406-8.469C120.275,45.964,134.562,36.719,150.4,30.513z M93.382,74.861
	c10.279,4.848,21.915,8.986,34.521,12.154c-3.491,15.515-5.689,32.453-6.335,50.489H70.238
	C72.178,114.295,80.517,92.897,93.382,74.861z M70.238,159.354h51.394c0.646,18.036,2.844,34.909,6.335,50.489
	c-12.606,3.168-24.242,7.24-34.521,12.154C80.517,204.024,72.178,182.562,70.238,159.354z M108.186,239.257
	c7.758-3.297,16.291-6.077,25.471-8.404c4.59,13.705,10.214,25.665,16.743,35.62C134.562,260.267,120.275,250.893,108.186,239.257z
	 M155.184,226.457c9.762-1.487,19.846-2.392,30.319-2.78v48.162C174.125,265.438,163.135,249.406,155.184,226.457z M196.364,370.748
	c-8.21,0-14.804-6.659-14.804-14.869c0-8.21,6.659-14.869,14.804-14.869c8.21,0,14.869,6.659,14.869,14.869
	C211.232,364.089,204.574,370.748,196.364,370.748z"/>
<path style="fill:#FFC10D;" d="M211.232,355.943c0-8.21-6.659-14.869-14.869-14.869c-8.21,0-14.804,6.659-14.804,14.869
	s6.659,14.869,14.804,14.869C204.574,370.748,211.232,364.089,211.232,355.943z"/>
</svg>