<?xml version="1.0" encoding="iso-8859-1"?>
<!-- Uploaded to: SVG Repo, www.svgrepo.com, Generator: SVG Repo Mixer Tools -->
<svg fill="#000000" height="800px" width="800px" version="1.1" id="Layer_1" xmlns="http://www.w3.org/2000/svg" xmlns:xlink="http://www.w3.org/1999/xlink" 
	 viewBox="0 0 512 512" xml:space="preserve">
<g>
	<g>
		<path d="M384,112.242c-27.827-27.828-81.296-42.573-128,4.131c-46.363-46.363-99.218-32.912-128-4.13L0,240.243L136.258,376.5
			c66.36,66.36,173.901,65.583,239.484,0L512,240.242L384,112.242z M152.774,137.017c19.831-19.831,53.402-20.92,74.322,0
			l28.903,28.905l28.904-28.905c22.429-22.429,55.512-18.811,74.322,0l88.95,88.95c-30.799-1.927-50.959-5.958-71.953-10.157
			c-29.545-5.909-60.094-12.02-120.222-12.02c-60.129,0-90.678,6.11-120.222,12.02c-20.996,4.198-41.154,8.23-71.952,10.157
			L152.774,137.017z M369.963,250.287c-31.556,12.772-58.944,23.574-113.964,23.574c-55.019,0-84.889-11.679-113.963-23.574
			c32.943-6.279,57.305-11.461,113.964-11.461C312.66,238.825,344.174,244.958,369.963,250.287z M350.995,351.699l-0.175,0.175
			c-52.199,52.199-137.246,52.393-189.787-0.148l-85.217-85.216c22.854,4.173,39.586,10.855,56.891,17.777
			c30.248,12.099,61.525,24.61,123.293,24.61s93.045-12.511,123.293-24.61c17.304-6.922,34.037-13.604,56.891-17.777
			L350.995,351.699z"/>
	</g>
</g>
</svg>